<svg width="256" height="256" fill="none" xmlns="http://www.w3.org/2000/svg"><path d="M77.97 196.59a82.23 82.23 0 0 1-28.5-4.81 68.44 68.44 0 0 1-22.56-14.06 66.01 66.01 0 0 1-14.8-21.28c-3.58-8.26-5.37-17.32-5.37-27.19 0-9.87 1.79-18.87 5.37-27.01a65.48 65.48 0 0 1 14.8-21.46A66.03 66.03 0 0 1 49.48 66.9a79.5 79.5 0 0 1 28.49-4.99c11.96 0 22.63 2.1 32 6.29a61.58 61.58 0 0 1 23.68 18.13l-23.3 21.09a45.52 45.52 0 0 0-13.88-11.28 35.27 35.27 0 0 0-16.65-3.89 40 40 0 0 0-14.62 2.59 31.62 31.62 0 0 0-11.47 7.58 36.24 36.24 0 0 0-7.4 11.66 42.56 42.56 0 0 0-2.59 15.17c0 5.55.86 10.6 2.6 15.17a38.54 38.54 0 0 0 7.4 11.84c3.2 3.2 7.02 5.67 11.46 7.4a39.99 39.99 0 0 0 14.62 2.59c6.16 0 11.71-1.3 16.65-3.88a45.52 45.52 0 0 0 13.87-11.29l23.31 21.09a64.07 64.07 0 0 1-23.68 18.13c-9.37 4.2-20.04 6.29-32 6.29Zm116.26 0c-10.6 0-20.84-1.3-30.71-3.88-9.75-2.72-17.7-6.17-23.87-10.37l12.03-27a87.82 87.82 0 0 0 19.98 9.25 77.35 77.35 0 0 0 22.75 3.51c5.06 0 9.13-.43 12.21-1.3 3.09-.98 5.3-2.22 6.66-3.7a7.94 7.94 0 0 0 2.22-5.54c0-2.97-1.35-5.3-4.07-7.03-2.71-1.73-6.22-3.15-10.54-4.26a328.99 328.99 0 0 0-14.43-3.33 157.08 157.08 0 0 1-15.73-4.25 65.68 65.68 0 0 1-14.24-6.66 34.29 34.29 0 0 1-10.55-10.92c-2.71-4.56-4.07-10.3-4.07-17.2 0-7.77 2.1-14.8 6.3-21.1 4.31-6.28 10.72-11.34 19.23-15.17 8.51-3.82 19.12-5.73 31.82-5.73 8.51 0 16.84.99 24.98 2.96a77.8 77.8 0 0 1 22.01 8.32l-11.28 27.2a83.9 83.9 0 0 0-18.32-7.4 63.86 63.86 0 0 0-17.57-2.59c-5.06 0-9.13.55-12.21 1.66-3.09 1-5.3 2.35-6.66 4.08a9.32 9.32 0 0 0-2.04 5.92c0 2.83 1.3 5.11 3.89 6.84 2.71 1.6 6.23 2.96 10.54 4.07 4.44.99 9.25 2.03 14.43 3.14 5.3 1.11 10.55 2.53 15.73 4.26a55.17 55.17 0 0 1 14.43 6.66 30.36 30.36 0 0 1 10.36 10.91c2.71 4.44 4.07 10.06 4.07 16.84a36.7 36.7 0 0 1-6.48 20.9c-4.19 6.3-10.54 11.35-19.05 15.17-8.39 3.83-19 5.74-31.82 5.74Z" fill="#50A89E"/></svg>